# xmcd CD database file
#
# Track frame offsets:
#	150
#	22812
#	44685
#	73498
#	95379
#	115278
#	134328
#	147766
#	173931
#	193709
#	212145
#
# Disc length: 3096 seconds
#
# Revision: 0
# Processed by: cddbd v1.5.1PL0 Copyright (c) Steve Scherf et al.
# Submitted via: CDex 1.50
#
DISCID=a70c160b
DTITLE=Oceano Azul - Music of Djavan
DYEAR=2002
DGENRE=Jazz
TTITLE0=Obi
TTITLE1=Acai
TTITLE2=Serrado
TTITLE3=Esquinas
TTITLE4=Azul
TTITLE5=Flor de Lis
TTITLE6=Luz
TTITLE7=Free Range Lizard
TTITLE8=Alagoas
TTITLE9=Oceano
TTITLE10=Sina
EXTD=YEAR: 2002
EXTT0=
EXTT1=
EXTT2=
EXTT3=
EXTT4=
EXTT5=
EXTT6=
EXTT7=
EXTT8=
EXTT9=
EXTT10=
PLAYORDER=
